<?xml version="1.0" standalone="no"?>
<!DOCTYPE svg PUBLIC "-//W3C//DTD SVG 20010904//EN"
 "http://www.w3.org/TR/2001/REC-SVG-20010904/DTD/svg10.dtd">
<svg version="1.0" xmlns="http://www.w3.org/2000/svg"
 width="700.000000pt" height="700.000000pt" viewBox="0 0 700.000000 700.000000"
 preserveAspectRatio="xMidYMid meet">
<metadata>
Created by potrace 1.14, written by Peter Selinger 2001-2017
</metadata>
<g transform="translate(0.000000,700.000000) scale(0.100000,-0.100000)"
fill="#000000" stroke="none">
<path d="M3368 6585 c-2 -1 -32 -6 -68 -9 -320 -33 -624 -182 -865 -424 -144
-143 -226 -260 -408 -582 -11 -19 -136 -237 -279 -485 -143 -247 -346 -598
-451 -780 -104 -181 -220 -382 -257 -445 -37 -63 -138 -239 -225 -390 -87
-151 -208 -358 -268 -460 -206 -349 -289 -558 -322 -809 -4 -25 -8 -62 -11
-81 -9 -64 -5 -286 6 -371 56 -421 246 -757 569 -1005 39 -30 73 -54 75 -54 3
0 24 -13 48 -29 186 -124 469 -223 709 -247 350 -36 666 38 974 226 166 101
360 285 480 456 59 82 213 331 262 423 45 84 88 143 113 156 43 22 99 5 121
-38 46 -87 296 -500 326 -537 7 -8 33 -42 58 -74 214 -279 538 -493 881 -580
277 -70 602 -51 894 54 574 204 936 638 1024 1225 14 90 15 394 2 465 -59 324
-112 456 -327 822 -81 136 -345 591 -449 773 -9 17 -117 203 -240 415 -122
212 -232 402 -244 423 -11 21 -25 46 -31 55 -8 14 -53 91 -135 233 -8 15 -77
134 -153 265 -76 132 -142 246 -147 254 -4 8 -27 46 -49 83 -23 38 -41 70 -41
73 0 4 -59 107 -100 174 -5 8 -22 38 -38 65 -27 46 -141 205 -166 231 -6 6
-37 38 -68 71 -125 132 -276 243 -433 318 -204 98 -365 134 -622 139 -78 2
-143 2 -145 1z m279 -998 c87 -30 169 -84 228 -149 44 -49 75 -98 260 -413
166 -281 212 -360 309 -530 54 -93 109 -187 122 -207 13 -21 24 -39 24 -42 0
-2 45 -81 100 -176 55 -94 100 -174 100 -176 0 -2 11 -21 23 -42 13 -20 35
-57 49 -82 14 -25 132 -232 263 -460 130 -228 247 -433 260 -455 12 -22 57
-101 100 -175 188 -324 209 -361 247 -448 83 -189 83 -358 1 -530 -74 -158
-247 -282 -430 -308 -230 -34 -423 40 -568 219 -35 43 -140 211 -223 357 -11
19 -48 84 -83 143 -35 59 -69 115 -74 125 -6 9 -37 62 -69 117 -33 55 -65 109
-70 120 -6 11 -73 124 -149 251 -162 270 -208 324 -332 385 -91 44 -155 59
-262 59 -82 0 -193 -31 -267 -75 -50 -30 -124 -97 -159 -145 -20 -28 -198
-324 -297 -495 -17 -30 -163 -276 -180 -305 -49 -80 -118 -198 -121 -206 -2
-5 -44 -77 -94 -158 -144 -239 -254 -338 -426 -382 -84 -22 -226 -21 -309 1
-261 71 -428 277 -435 535 -4 152 33 266 154 473 28 49 51 91 51 94 0 3 8 17
19 31 10 15 32 52 49 82 16 30 96 169 176 309 80 140 146 258 146 263 0 4 5 8
10 8 6 0 10 4 10 9 0 5 28 58 62 118 62 110 67 119 133 233 21 36 49 85 63
110 13 25 28 50 32 55 4 6 21 35 37 65 17 30 54 96 83 145 29 50 62 108 75
130 36 67 392 681 476 822 44 73 79 137 79 143 0 5 5 10 10 10 6 0 10 4 10 9
0 23 198 338 244 388 145 159 353 217 543 150z"/>
</g>
</svg>
